<?xml version="1.0" encoding="UTF-8" standalone="no"?>
<!-- Created with Inkscape (http://www.inkscape.org/) -->

<svg
   version="1.1"
   id="svg2"
   width="883.28003"
   height="943.30664"
   viewBox="0 0 883.28003 943.30664"
   sodipodi:docname="globe-and-pin-pointers-vectorportal.eps"
   xmlns:inkscape="http://www.inkscape.org/namespaces/inkscape"
   xmlns:sodipodi="http://sodipodi.sourceforge.net/DTD/sodipodi-0.dtd"
   xmlns="http://www.w3.org/2000/svg"
   xmlns:svg="http://www.w3.org/2000/svg">
  <defs
     id="defs6" />

  <g
     id="g8"
     inkscape:groupmode="layer"
     inkscape:label="ink_ext_XXXXXX"
     transform="matrix(1.3333333,0,0,-1.3333333,0,943.30667)">
    <g
       id="g10"
       transform="scale(0.1)">
      <path
         d="m 3320.32,548.121 c 1503.48,0 2729.72,1226.239 2729.72,2729.719 0,1503.47 -1226.24,2729.72 -2729.72,2729.72 -1503.47,0 -2729.711,-1226.25 -2729.711,-2729.72 0,-1503.48 1226.241,-2729.719 2729.711,-2729.719"
         style="fill:#4ba6ce;fill-opacity:1;fill-rule:evenodd;stroke:none"
         id="path168" />
      <path
         d="m 2755.15,2256.22 c 941.13,0 1708.7,628.41 1708.7,1398.88 0,770.5 -767.57,1398.91 -1708.7,1398.91 -941.11,0 -1708.68,-628.41 -1708.68,-1398.91 0,-770.47 767.57,-1398.88 1708.68,-1398.88"
         style="fill:#62c3e8;fill-opacity:1;fill-rule:evenodd;stroke:none"
         id="path170" />
      <path
         d="m 736.305,2395.9 c 152.187,52.34 319.545,90.79 512.065,71.8 1880.86,-185.44 530.92,1323.5 577.64,1597.01 58.98,345.38 -216.7,768.82 -498.54,1078.3 -456.958,-488 -736.861,-1143.84 -736.861,-1865.17 0,-308.62 51.278,-605.28 145.696,-881.94 z M 4000.58,633.582 c -217.46,-55.781 -445.38,-85.461 -680.26,-85.461 -2.91,0 -5.81,0.109 -8.71,0.109 -51.87,84.692 -80.79,144.418 -82.03,145.079 -1343.9,697.681 -513.09,1272.621 -512.62,1280.741 43.53,758.82 583.78,472.18 270.52,904.34 -712.35,982.79 264.31,1691.93 1322.47,1497.42 308.49,30.41 640.53,-351.48 832.25,-545.36 441.02,-446.07 -2411.92,-1486.03 -259.42,-1557.12 110.58,-3.68 102.61,-902.7 -233.93,-947.18 -977.84,-129.22 -881.79,-416.181 -648.27,-692.568 v 0"
         style="fill:#3c8cb7;fill-opacity:1;fill-rule:evenodd;stroke:none"
         id="path172" />
      <path
         d="m 1834.64,2476.38 c 961.94,183.07 -49.19,1350.92 -8.63,1588.33 34.9,204.36 -47.39,436.04 -178.77,655.29 -367.6,-256.58 -600.79,-638.4 -600.79,-1064.9 0,-495.07 314.15,-930.1 788.19,-1178.72 z m 932.79,-220.03 c 139.11,405.28 485.12,256.36 220.05,622.04 -689.36,951.07 203.06,1645.85 1220.38,1513.41 162.22,-213.96 255.99,-466.34 255.99,-736.7 0,-769.22 -758.4,-1393.36 -1696.42,-1398.75 v 0"
         style="fill:#4ba6ce;fill-opacity:1;fill-rule:evenodd;stroke:none"
         id="path174" />
      <path
         d="m 2502.53,5052.93 c 215.69,103.78 443.39,180.65 675.83,222.93 l 49.44,7.3 c -169.74,78.89 -351.86,130.32 -540.1,151.5 -116.85,-93.86 -187.05,-214.17 -187.05,-345.34 0,-12.23 0.67,-24.37 1.88,-36.39 z m 1162.76,113.16 c 136.66,-84.96 260.36,-201.6 370.62,-341.75 36.51,43.18 64.37,89.99 82.04,139.44 -145.55,81.37 -297.24,149.71 -452.66,202.31 z M 2639.87,4786.52 c 127.71,165.35 272.1,302.26 431.57,399.47 -188.87,-56.31 -372.5,-133.49 -546.67,-227.8 23.27,-62.14 62.67,-120.06 115.1,-171.67 z M 3246,5208.9 c -195.91,-93.44 -375.79,-261.16 -530.42,-486.11 134.18,-97.13 320.92,-161.85 530.42,-174.32 v 660.43 z m 705.5,-466.01 c -162.12,229.97 -351.17,397.7 -556.84,484.04 v -678.46 c 223.63,13.33 421.35,86.17 556.84,194.42 z m -529.22,544.87 80.51,-11.9 c 217.92,-39.64 432,-113.97 636.1,-215 0.72,9.41 1.09,18.91 1.09,28.46 0,131.25 -70.29,251.59 -187.27,345.46 -184.68,-20.76 -363.47,-70.66 -530.43,-147.02 z M 4585.13,3558.38 c 238.26,111.21 441.67,252.95 597.28,416.7 -239.47,364.33 -576.38,692.19 -962.73,929.05 -25.3,-61.66 -64.64,-119.51 -115.62,-171.88 223.38,-319.85 385.06,-738.48 481.07,-1173.87 z M 3394.66,3294.26 c 380.89,8.37 737.22,80.92 1045.19,201.86 -85.74,453.41 -235.03,851.2 -427.99,1156.47 -154.98,-113.64 -372.8,-188.89 -617.2,-201.68 V 3294.26 Z M 2238.6,3481.61 c 299.18,-112.21 642,-179.31 1007.4,-187.35 v 1156.65 c -229.91,12.03 -436.32,79.35 -589.01,181.87 -189.04,-305.9 -334.9,-701.51 -418.39,-1151.17 z m -783.77,497.08 c 163.01,-172.64 379,-321.05 632.97,-435.14 99,427.44 264.37,834.29 486.18,1153.11 -68.15,60.28 -120.06,129.09 -151.42,203.58 -395.5,-234.4 -735.62,-557.2 -967.73,-921.55 z m 598.95,-596.25 c -272.7,115.95 -506.8,268.31 -686.78,446.67 -151.38,-280.84 -238.23,-581.42 -238.23,-882.11 0,-204.99 23.01,-398.11 64.92,-579.61 231.83,-181.63 515.61,-333.19 836.27,-444.52 -31.45,205.65 -49.06,438.15 -49.06,706.07 0,246.41 24.95,502.02 72.88,753.5 z M 3246,3137.79 c -373.24,7.68 -724.52,73.09 -1034.22,183.18 -33.86,-228.13 -51.99,-468.39 -51.99,-716.54 0,-256.77 19.4,-505.11 55.58,-740.27 317.3,-91.01 665.15,-144.11 1030.63,-150.47 v 1424.1 z m 1221.28,197.17 C 4148.36,3216.42 3783.42,3145.81 3394.66,3137.79 v -1424.1 c 381.78,6.64 744.45,64.17 1073.03,162.79 34.97,231.49 53.67,475.66 53.67,727.95 0,253.23 -18.87,498.26 -54.08,730.53 z m 805.29,493.07 c -172.96,-171.1 -395.83,-318.14 -654.77,-432.12 47.07,-258.96 71.03,-520.27 71.03,-766.97 0,-266.48 -16.15,-494.55 -45.08,-694.54 345.38,123.92 646.67,294.85 884.51,499.77 21.09,127.79 32.37,263.09 32.37,406.71 0,327.67 -106.09,668.09 -288.06,987.15 z m -3915.43,265.29 c 257.77,362.99 621.81,683.45 1036.94,904.7 -3.72,22.49 -5.72,45.31 -5.72,68.42 0,141.92 72.29,272.61 193.74,376.89 -486.52,25.17 -1005.69,-150.96 -1453.96,-576.61 -4.58,-38.36 -6.9,-77.17 -6.9,-116.32 0,-236.41 85.07,-459.64 235.9,-657.08 z m 4155.41,773.01 c -448.24,425.83 -967.5,602.17 -1454.06,577.11 121.51,-104.28 193.8,-235.05 193.8,-377 0,-21.05 -1.63,-41.87 -4.71,-62.39 406.11,-223.73 766.7,-551.54 1030.78,-917.58 154.09,199.09 241.06,424.78 241.06,663.93 0,39.02 -2.33,77.66 -6.87,115.93 z M 3213.49,5378.3 c -65.76,78.39 -136.69,148.71 -212.88,211.2 -76.02,-21.35 -146.17,-50.09 -208.38,-84.87 155.96,-22.84 300.37,-64.86 421.26,-126.33 z m -127.7,231.5 c 58.79,-55.38 111.86,-114.18 160.21,-175.11 v 195.48 c -55.17,-3.29 -108.75,-10.2 -160.21,-20.37 z m 343.35,-230.27 c 120.48,60.81 264.1,102.47 419.16,125.15 -62,34.62 -131.86,63.28 -207.56,84.61 -75.69,-62.12 -146.2,-131.97 -211.6,-209.76 z m 126.52,230.1 c -51.7,10.25 -105.56,17.23 -161,20.54 v -196.7 c 48.55,61.31 101.87,120.46 161,176.16 z m -168.56,397.08 7.42,-0.19 h 0.14 v -324.53 c 72.95,-3.82 143.52,-13.2 210.79,-27.51 119.6,102.97 261.67,191.89 433.79,257.46 43.05,-11.71 85.69,-24.43 127.88,-38.17 -174.43,-56.6 -331.59,-136.82 -471.96,-241.84 97.08,-28.29 185.5,-67.22 261.87,-114.59 498.91,43.56 1083.2,-97.74 1396.39,-418.62 53.49,-59.71 104.37,-121.77 152.49,-186.01 l -0.17,0.97 c 58.38,-77.88 112.56,-159.06 162.52,-243.05 -5.58,-264.28 -110.7,-512.6 -291.5,-729.35 222.95,-351.19 355.4,-728.39 355.4,-1077.51 0,-83.42 -3.62,-163.12 -10.39,-239.57 152.83,172.25 264.69,362.37 326.67,564.49 -5.92,-184.48 -30.08,-364.31 -70.84,-537.77 -84.5,-117.89 -186.27,-229.26 -303.23,-332.65 -144.81,-636.82 -540.92,-1015.35 -948.84,-1381.02 -11.91,-7.172 -23.9,-14.262 -35.94,-21.25 -7.03,-4.078 -14.09,-8.129 -21.16,-12.18 -12.11,-6.879 -24.31,-13.691 -36.54,-20.422 -6.96,-3.796 -13.92,-7.578 -20.91,-11.339 -12.35,-6.637 -24.76,-13.18 -37.21,-19.637 -7.05,-3.641 -14.11,-7.281 -21.2,-10.871 -12.58,-6.371 -25.2,-12.641 -37.89,-18.821 -7.11,-3.48 -14.24,-6.898 -21.41,-10.32 -12.88,-6.14 -25.83,-12.199 -38.82,-18.14 -7.16,-3.27 -14.35,-6.532 -21.55,-9.719 -13.11,-5.871 -26.27,-11.621 -39.48,-17.301 -6.97,-2.98 -13.96,-5.941 -20.94,-8.859 -8.37,-3.493 -16.81,-6.879 -25.21,-10.289 475.66,343.498 923.49,771.178 1115.29,1403.308 -242.82,-171.11 -531.8,-313.1 -853.74,-417.31 -92.13,-447.03 -254.22,-745.709 -435.33,-1049.799 -34.52,-11.352 -69.26,-22.172 -104.36,-32.18 161.12,283.508 287.2,635.109 364.83,1030.069 -321.82,-87.38 -672.19,-138.08 -1039.3,-144.13 v -988.9 h -0.14 l -7.42,-0.191 c -22.19,-0.539 -44.44,-0.848 -66.78,-0.848 -22.32,0 -44.58,0.309 -66.77,0.848 l -7.44,0.191 H 3246 v 988.9 c -350.91,5.77 -686.52,52.3 -996.53,132.69 79,-396.36 206.87,-748.621 369.98,-1031.641 -35.6,9.442 -70.96,19.473 -105.99,30.282 -185.41,293.75 -351.38,606.629 -447.02,1053.709 -292.95,91.66 -559.35,214.46 -789.54,361.93 217.11,-601.05 646.15,-1055.8 1106.16,-1371.589 -5.17,1.891 -10.35,3.797 -15.48,5.719 -11.13,4.149 -22.22,8.36 -33.28,12.649 -10.05,3.902 -20.08,7.859 -30.08,11.863 -10.31,4.129 -20.58,8.34 -30.82,12.609 -10.55,4.367 -21.07,8.828 -31.56,13.348 -9.4,4.051 -18.76,8.141 -28.11,12.293 -11.19,4.969 -22.33,9.988 -33.43,15.109 -9,4.149 -18,8.34 -26.95,12.59 -10.94,5.188 -21.85,10.43 -32.7,15.758 -8.97,4.391 -17.92,8.832 -26.82,13.332 -10.83,5.449 -21.58,10.949 -32.33,16.559 -8.85,4.601 -17.7,9.269 -26.48,13.949 l -0.48,0.273 c -409.3,337.548 -797.6,768.588 -975.62,1371.148 -156.432,124.59 -289.803,262.33 -395.873,410.33 -40.758,173.41 -64.879,353.24 -70.817,537.65 71.153,-232.13 208.118,-448.4 397.399,-639.93 -21.031,132.75 -32.383,272.9 -32.383,421.2 0,327.81 111.634,664.22 302.594,976.23 -178.34,215.58 -281.902,462.17 -287.442,724.51 49.952,83.99 104.132,165.17 162.512,243.05 l -0.07,-0.34 c 4.47,5.96 8.95,11.9 13.46,17.79 l 9.24,12.06 c 9.91,12.89 19.96,25.65 30.08,38.32 4.06,5.07 8.12,10.11 12.21,15.14 9.27,11.43 18.61,22.78 28.07,34.04 5.04,6.01 10.09,12 15.19,17.96 8.75,10.27 17.6,20.47 26.5,30.6 5.71,6.51 11.46,12.99 17.24,19.43 l 0.03,0.04 c 313.26,320.96 897.76,462.27 1396.75,418.59 76.55,47.48 165.21,86.51 262.59,114.82 -140.3,104.93 -297.36,185.08 -471.68,241.64 42.17,13.74 84.82,26.46 127.86,38.17 172.03,-65.54 314.04,-154.39 433.62,-257.3 67.01,14.22 137.34,23.54 210,27.35 v 324.53 h 0.11 l 7.44,0.19 c 22.19,0.53 44.45,0.84 66.77,0.84 22.34,0 44.59,-0.31 66.78,-0.84 v 0"
         style="fill:#84d6ef;fill-opacity:1;fill-rule:evenodd;stroke:none"
         id="path176" />
      <path
         d="m 2238.6,3481.61 c 299.18,-112.21 642,-179.31 1007.4,-187.35 v 1156.65 c -229.91,12.03 -436.32,79.35 -589.01,181.87 -189.04,-305.9 -334.9,-701.51 -418.39,-1151.17 z m -783.77,497.08 c 163.01,-172.64 379,-321.05 632.97,-435.14 99,427.44 264.37,834.29 486.18,1153.11 -68.15,60.28 -120.06,129.09 -151.42,203.58 -395.5,-234.4 -735.62,-557.2 -967.73,-921.55 z M 1054.7,3517.43 c 50.73,145.79 120.04,289.66 205.14,428.69 -44.62,53.92 -84.54,109.79 -119.43,167.36 25.92,61.23 56.82,120.56 92.44,177.59 34.21,-68.31 75.86,-134.36 124.29,-197.75 257.77,362.99 621.81,683.45 1036.94,904.7 -1.3,7.97 -2.42,15.96 -3.29,24 105.51,18.78 214.64,29.57 326.45,31.58 -65.27,-29.44 -129.49,-61.31 -192.47,-95.41 23.27,-62.14 62.67,-120.06 115.1,-171.67 76.27,98.75 158.5,187.35 246.35,263.43 36.08,-2.27 71.86,-5.51 107.29,-9.56 -99.31,-86.47 -192.47,-193.31 -277.93,-317.6 134.18,-97.13 320.92,-161.85 530.42,-174.32 v 446.84 c 50.57,-12.38 100.17,-26.66 148.66,-42.68 v -404.16 c 192.5,11.47 365.77,67.04 496.73,151.32 30.53,-22.28 60.09,-45.43 88.61,-69.42 -152.32,-101.18 -357.26,-167.53 -585.34,-179.46 V 3294.26 c 380.89,8.37 737.22,80.92 1045.19,201.86 -75.53,399.39 -200.37,755.62 -360.93,1043.5 240.55,-241.05 384.93,-548.96 384.93,-884.52 0,-117.14 -17.7,-230.93 -50.83,-339.68 -305.79,-106.74 -651.47,-170.05 -1018.36,-177.63 v -780.2 c -48.49,-16.03 -98.09,-30.29 -148.66,-42.69 v 822.89 c -373.24,7.68 -724.52,73.09 -1034.22,183.18 -33.86,-228.13 -51.99,-468.39 -51.99,-716.54 0,-88.74 2.31,-176.47 6.86,-263.03 -62.28,18.73 -122.85,40.35 -181.47,64.62 -2.83,71.52 -4.28,145.73 -4.28,222.92 0,246.41 24.95,502.02 72.88,753.5 -272.7,115.95 -506.8,268.31 -686.78,446.67 -111.71,-207.21 -188.25,-425.19 -220.73,-646 -46.46,106.1 -77.71,218.13 -91.57,334.32 v 0"
         style="fill:#aae4f8;fill-opacity:1;fill-rule:evenodd;stroke:none"
         id="path178" />
      <path
         d="m 1351.82,5335.85 0.11,-0.32 c 5.39,-14.61 11.46,-28.66 18.09,-42.08 l 54.16,-126 v -384.86 h 165.44 l 216.66,505.03 c 8.9,17.26 16.79,35.61 23.52,54.91 l 0.14,0.26 h -0.02 c 17.62,50.42 27.54,107.16 27.54,167.18 0,208.83 -119.91,378.13 -267.84,378.13 h -165.44 v -80.73 c -62.35,-69.23 -102.4,-176.71 -102.4,-297.4 0,-62.8 10.85,-122.01 30.04,-174.12 v 0"
         style="fill:#d93322;fill-opacity:1;fill-rule:evenodd;stroke:none"
         id="path180" />
      <path
         d="m 1186.38,5335.85 0.12,-0.32 c 5.4,-14.61 11.43,-28.66 18.09,-42.08 l 219.59,-510.86 216.66,505.03 c 8.9,17.26 16.79,35.61 23.54,54.91 l 0.12,0.26 h -0.02 c 17.62,50.42 27.56,107.16 27.56,167.18 0,208.83 -119.94,378.13 -267.86,378.13 -147.91,0 -267.83,-169.3 -267.83,-378.13 0,-62.8 10.84,-122.01 30.05,-174.12 h -0.02"
         style="fill:#f0401e;fill-opacity:1;fill-rule:evenodd;stroke:none"
         id="path182" />
      <path
         d="m 1424.2,5332.03 c 69.42,0 126.04,79.94 126.04,177.94 0,98.01 -56.62,177.94 -126.04,177.94 -69.42,0 -126.04,-79.93 -126.04,-177.94 0,-98 56.62,-177.94 126.04,-177.94"
         style="fill:#fde2de;fill-opacity:1;fill-rule:evenodd;stroke:none"
         id="path184" />
      <path
         d="m 1908.13,3071.26 0.11,-0.35 c 5.39,-14.59 11.46,-28.66 18.09,-42.06 l 54.16,-126 v -384.86 h 165.44 l 216.66,505.03 c 8.89,17.26 16.79,35.61 23.52,54.9 l 0.14,0.25 h -0.02 c 17.62,50.42 27.54,107.17 27.54,167.2 0,208.84 -119.91,378.13 -267.84,378.13 h -165.44 v -80.74 c -62.35,-69.23 -102.4,-176.7 -102.4,-297.39 0,-62.81 10.85,-122 30.04,-174.11 v 0"
         style="fill:#f39c0f;fill-opacity:1;fill-rule:evenodd;stroke:none"
         id="path186" />
      <path
         d="m 1742.69,3071.26 0.12,-0.35 c 5.4,-14.59 11.45,-28.66 18.09,-42.06 l 219.59,-510.86 216.66,505.03 c 8.89,17.26 16.79,35.61 23.54,54.9 l 0.12,0.25 h -0.02 c 17.62,50.42 27.56,107.17 27.56,167.2 0,208.84 -119.92,378.13 -267.86,378.13 -147.91,0 -267.83,-169.29 -267.83,-378.13 0,-62.81 10.84,-122 30.05,-174.11 h -0.02"
         style="fill:#fbca07;fill-opacity:1;fill-rule:evenodd;stroke:none"
         id="path188" />
      <path
         d="m 1980.51,3067.44 c 69.42,0 126.04,79.92 126.04,177.93 0,98.01 -56.62,177.94 -126.04,177.94 -69.43,0 -126.04,-79.93 -126.04,-177.94 0,-98.01 56.61,-177.93 126.04,-177.93"
         style="fill:#fde2de;fill-opacity:1;fill-rule:evenodd;stroke:none"
         id="path190" />
      <path
         d="m 5581.68,4778.11 -0.14,-0.32 c -5.39,-14.61 -11.44,-28.64 -18.08,-42.08 l -54.16,-126 v -384.86 h -165.44 l -216.64,505.05 c -8.9,17.23 -16.8,35.59 -23.55,54.87 l -0.12,0.3 h 0.02 c -17.62,50.4 -27.55,107.13 -27.55,167.17 0,208.83 119.93,378.12 267.84,378.12 h 165.44 v -80.72 c 62.36,-69.24 102.4,-176.72 102.4,-297.4 0,-62.8 -10.85,-122.02 -30.04,-174.13 h 0.02"
         style="fill:#296283;fill-opacity:1;fill-rule:evenodd;stroke:none"
         id="path192" />
      <path
         d="m 5747.11,4778.11 -0.12,-0.32 c -5.39,-14.61 -11.45,-28.64 -18.09,-42.08 l -219.6,-510.86 -216.64,505.05 c -8.9,17.23 -16.79,35.59 -23.55,54.87 l -0.14,0.3 h 0.02 c -17.61,50.4 -27.53,107.13 -27.53,167.17 0,208.83 119.91,378.12 267.84,378.12 147.93,0 267.85,-169.29 267.85,-378.12 0,-62.8 -10.87,-122.02 -30.04,-174.13 v 0"
         style="fill:#1e4660;fill-opacity:1;fill-rule:evenodd;stroke:none"
         id="path194" />
      <path
         d="m 5509.3,4774.31 c 69.42,0 126.03,79.92 126.03,177.93 0,98.01 -56.61,177.93 -126.03,177.93 -69.43,0 -126.05,-79.92 -126.05,-177.93 0,-98.01 56.62,-177.93 126.05,-177.93"
         style="fill:#fde2de;fill-opacity:1;fill-rule:evenodd;stroke:none"
         id="path196" />
      <path
         d="m 4699.22,3731.45 -0.16,-0.34 c -5.38,-14.59 -11.42,-28.64 -18.06,-42.06 l -54.18,-126 V 3178.2 H 4461.4 l -216.67,505.03 c -8.9,17.25 -16.77,35.6 -23.54,54.89 l -0.12,0.27 h 0.02 c -17.62,50.42 -27.55,107.15 -27.55,167.17 0,208.85 119.93,378.14 267.86,378.14 h 165.42 v -80.74 c 62.36,-69.23 102.42,-176.7 102.42,-297.4 0,-62.79 -10.85,-121.99 -30.06,-174.11 h 0.04"
         style="fill:#ed0e66;fill-opacity:1;fill-rule:evenodd;stroke:none"
         id="path198" />
      <path
         d="m 4864.64,3731.45 -0.14,-0.34 c -5.39,-14.59 -11.44,-28.64 -18.08,-42.06 l -219.6,-510.85 -216.64,505.03 c -8.9,17.25 -16.79,35.6 -23.55,54.89 l -0.12,0.27 h 0.02 c -17.64,50.42 -27.56,107.15 -27.56,167.17 0,208.85 119.94,378.14 267.85,378.14 147.92,0 267.84,-169.29 267.84,-378.14 0,-62.79 -10.85,-121.99 -30.04,-174.11 h 0.02"
         style="fill:#be164d;fill-opacity:1;fill-rule:evenodd;stroke:none"
         id="path200" />
      <path
         d="m 4626.82,3727.64 c 69.42,0 126.03,79.93 126.03,177.92 0,98.02 -56.61,177.95 -126.03,177.95 -69.43,0 -126.05,-79.93 -126.05,-177.95 0,-97.99 56.62,-177.92 126.05,-177.92"
         style="fill:#fde2de;fill-opacity:1;fill-rule:evenodd;stroke:none"
         id="path202" />
    </g>
  </g>
</svg>
